<svg xmlns="http://www.w3.org/2000/svg" viewBox="0 0 22 22"><g transform="matrix(.1615 0 0 .1615 1.7 1.638)" fill-opacity="1" fill="#ffffff"><path d="m57.57 8.464c-1.412 0-2.634.517-3.666 1.548l-27.13 27.13h-21.346c-1.413 0-2.635.517-3.667 1.548-1.032 1.032-1.548 2.255-1.548 3.667v31.28c0 1.412.516 2.635 1.548 3.666 1.033 1.032 2.255 1.549 3.667 1.549h21.345l27.13 27.13c1.032 1.031 2.254 1.548 3.666 1.548 1.413 0 2.635-.517 3.667-1.548 1.032-1.031 1.548-2.254 1.548-3.666v-88.64c0-1.412-.516-2.635-1.547-3.667-1.033-1.031-2.254-1.548-3.667-1.548"/></g></svg>